<mxfile host="Electron" modified="2023-07-25T14:26:19.751Z" agent="Mozilla/5.0 (X11; Linux x86_64) AppleWebKit/537.36 (KHTML, like Gecko) draw.io/21.6.5 Chrome/114.0.5735.243 Electron/25.3.1 Safari/537.36" etag="Lj17iDvtNdsTTEya9xoP" version="21.6.5" type="device">
  <diagram name="Page-1" id="on7K2pyPr1gFtHjquffn">
    <mxGraphModel dx="2720" dy="1686" grid="1" gridSize="10" guides="1" tooltips="1" connect="1" arrows="1" fold="1" page="1" pageScale="1" pageWidth="850" pageHeight="1100" math="0" shadow="0">
      <root>
        <mxCell id="0" />
        <mxCell id="1" parent="0" />
        <mxCell id="6OEM7R_kupbA7WdNX-fc-2" value="(" style="rounded=0;whiteSpace=wrap;html=1;" vertex="1" parent="1">
          <mxGeometry x="40" y="120" width="40" height="40" as="geometry" />
        </mxCell>
        <mxCell id="6OEM7R_kupbA7WdNX-fc-4" value=")" style="rounded=0;whiteSpace=wrap;html=1;" vertex="1" parent="1">
          <mxGeometry x="80" y="120" width="40" height="40" as="geometry" />
        </mxCell>
        <mxCell id="6OEM7R_kupbA7WdNX-fc-5" value="[" style="rounded=0;whiteSpace=wrap;html=1;" vertex="1" parent="1">
          <mxGeometry x="120" y="120" width="40" height="40" as="geometry" />
        </mxCell>
        <mxCell id="6OEM7R_kupbA7WdNX-fc-6" value="]" style="rounded=0;whiteSpace=wrap;html=1;" vertex="1" parent="1">
          <mxGeometry x="160" y="120" width="40" height="40" as="geometry" />
        </mxCell>
        <mxCell id="6OEM7R_kupbA7WdNX-fc-11" value="Sequence" style="text;html=1;strokeColor=none;fillColor=none;align=center;verticalAlign=middle;whiteSpace=wrap;rounded=0;" vertex="1" parent="1">
          <mxGeometry x="131" y="70" width="60" height="30" as="geometry" />
        </mxCell>
        <mxCell id="6OEM7R_kupbA7WdNX-fc-12" value="Preconditions" style="text;html=1;strokeColor=none;fillColor=none;align=center;verticalAlign=middle;whiteSpace=wrap;rounded=0;fontSize=18;" vertex="1" parent="1">
          <mxGeometry x="60" y="40" width="60" height="30" as="geometry" />
        </mxCell>
        <mxCell id="6OEM7R_kupbA7WdNX-fc-15" value="Iterations" style="text;html=1;strokeColor=none;fillColor=none;align=center;verticalAlign=middle;whiteSpace=wrap;rounded=0;fontSize=18;" vertex="1" parent="1">
          <mxGeometry x="40" y="200" width="60" height="30" as="geometry" />
        </mxCell>
        <mxCell id="6OEM7R_kupbA7WdNX-fc-16" value="(" style="rounded=0;whiteSpace=wrap;html=1;fontColor=#00FF00;" vertex="1" parent="1">
          <mxGeometry x="41" y="280" width="40" height="40" as="geometry" />
        </mxCell>
        <mxCell id="6OEM7R_kupbA7WdNX-fc-17" value=")" style="rounded=0;whiteSpace=wrap;html=1;" vertex="1" parent="1">
          <mxGeometry x="81" y="280" width="40" height="40" as="geometry" />
        </mxCell>
        <mxCell id="6OEM7R_kupbA7WdNX-fc-18" value="[" style="rounded=0;whiteSpace=wrap;html=1;" vertex="1" parent="1">
          <mxGeometry x="121" y="280" width="40" height="40" as="geometry" />
        </mxCell>
        <mxCell id="6OEM7R_kupbA7WdNX-fc-19" value="]" style="rounded=0;whiteSpace=wrap;html=1;" vertex="1" parent="1">
          <mxGeometry x="161" y="280" width="40" height="40" as="geometry" />
        </mxCell>
        <mxCell id="6OEM7R_kupbA7WdNX-fc-22" value="Sequence" style="text;html=1;strokeColor=none;fillColor=none;align=center;verticalAlign=middle;whiteSpace=wrap;rounded=0;" vertex="1" parent="1">
          <mxGeometry x="131" y="230" width="60" height="30" as="geometry" />
        </mxCell>
        <mxCell id="6OEM7R_kupbA7WdNX-fc-23" value="(" style="rounded=0;whiteSpace=wrap;html=1;fontColor=#00FF00;" vertex="1" parent="1">
          <mxGeometry x="41" y="400" width="40" height="40" as="geometry" />
        </mxCell>
        <mxCell id="6OEM7R_kupbA7WdNX-fc-24" value="0" style="text;html=1;strokeColor=none;fillColor=none;align=center;verticalAlign=middle;whiteSpace=wrap;rounded=0;" vertex="1" parent="1">
          <mxGeometry x="40" y="100" width="40" height="20" as="geometry" />
        </mxCell>
        <mxCell id="6OEM7R_kupbA7WdNX-fc-25" value="1" style="text;html=1;strokeColor=none;fillColor=none;align=center;verticalAlign=middle;whiteSpace=wrap;rounded=0;" vertex="1" parent="1">
          <mxGeometry x="80" y="100" width="40" height="20" as="geometry" />
        </mxCell>
        <mxCell id="6OEM7R_kupbA7WdNX-fc-26" value="2" style="text;html=1;strokeColor=none;fillColor=none;align=center;verticalAlign=middle;whiteSpace=wrap;rounded=0;" vertex="1" parent="1">
          <mxGeometry x="120" y="100" width="40" height="20" as="geometry" />
        </mxCell>
        <mxCell id="6OEM7R_kupbA7WdNX-fc-27" value="3" style="text;html=1;strokeColor=none;fillColor=none;align=center;verticalAlign=middle;whiteSpace=wrap;rounded=0;" vertex="1" parent="1">
          <mxGeometry x="160" y="100" width="40" height="20" as="geometry" />
        </mxCell>
        <mxCell id="6OEM7R_kupbA7WdNX-fc-30" value="Stack" style="text;html=1;strokeColor=none;fillColor=none;align=center;verticalAlign=middle;whiteSpace=wrap;rounded=0;" vertex="1" parent="1">
          <mxGeometry x="131" y="360" width="60" height="30" as="geometry" />
        </mxCell>
        <mxCell id="6OEM7R_kupbA7WdNX-fc-31" value="0" style="text;html=1;strokeColor=none;fillColor=none;align=center;verticalAlign=middle;whiteSpace=wrap;rounded=0;fontColor=#00FF00;" vertex="1" parent="1">
          <mxGeometry x="41" y="260" width="40" height="20" as="geometry" />
        </mxCell>
        <mxCell id="6OEM7R_kupbA7WdNX-fc-32" value="1" style="text;html=1;strokeColor=none;fillColor=none;align=center;verticalAlign=middle;whiteSpace=wrap;rounded=0;" vertex="1" parent="1">
          <mxGeometry x="81" y="260" width="40" height="20" as="geometry" />
        </mxCell>
        <mxCell id="6OEM7R_kupbA7WdNX-fc-33" value="2" style="text;html=1;strokeColor=none;fillColor=none;align=center;verticalAlign=middle;whiteSpace=wrap;rounded=0;" vertex="1" parent="1">
          <mxGeometry x="121" y="260" width="40" height="20" as="geometry" />
        </mxCell>
        <mxCell id="6OEM7R_kupbA7WdNX-fc-34" value="3" style="text;html=1;strokeColor=none;fillColor=none;align=center;verticalAlign=middle;whiteSpace=wrap;rounded=0;" vertex="1" parent="1">
          <mxGeometry x="161" y="260" width="40" height="20" as="geometry" />
        </mxCell>
        <mxCell id="6OEM7R_kupbA7WdNX-fc-38" value="(" style="rounded=0;whiteSpace=wrap;html=1;fontColor=#FFFFFF;" vertex="1" parent="1">
          <mxGeometry x="41" y="520" width="40" height="40" as="geometry" />
        </mxCell>
        <mxCell id="6OEM7R_kupbA7WdNX-fc-39" value=")" style="rounded=0;whiteSpace=wrap;html=1;fontColor=#00FF00;" vertex="1" parent="1">
          <mxGeometry x="81" y="520" width="40" height="40" as="geometry" />
        </mxCell>
        <mxCell id="6OEM7R_kupbA7WdNX-fc-40" value="[" style="rounded=0;whiteSpace=wrap;html=1;" vertex="1" parent="1">
          <mxGeometry x="121" y="520" width="40" height="40" as="geometry" />
        </mxCell>
        <mxCell id="6OEM7R_kupbA7WdNX-fc-41" value="]" style="rounded=0;whiteSpace=wrap;html=1;" vertex="1" parent="1">
          <mxGeometry x="161" y="520" width="40" height="40" as="geometry" />
        </mxCell>
        <mxCell id="6OEM7R_kupbA7WdNX-fc-44" value="Sequence" style="text;html=1;strokeColor=none;fillColor=none;align=center;verticalAlign=middle;whiteSpace=wrap;rounded=0;" vertex="1" parent="1">
          <mxGeometry x="131" y="470" width="60" height="30" as="geometry" />
        </mxCell>
        <mxCell id="6OEM7R_kupbA7WdNX-fc-45" value="(" style="rounded=0;whiteSpace=wrap;html=1;fontColor=#FFFFFF;" vertex="1" parent="1">
          <mxGeometry x="40" y="680" width="40" height="40" as="geometry" />
        </mxCell>
        <mxCell id="6OEM7R_kupbA7WdNX-fc-46" value="Stack" style="text;html=1;strokeColor=none;fillColor=none;align=center;verticalAlign=middle;whiteSpace=wrap;rounded=0;" vertex="1" parent="1">
          <mxGeometry x="90" y="600" width="60" height="30" as="geometry" />
        </mxCell>
        <mxCell id="6OEM7R_kupbA7WdNX-fc-47" value="0" style="text;html=1;strokeColor=none;fillColor=none;align=center;verticalAlign=middle;whiteSpace=wrap;rounded=0;fontColor=#FFFFFF;" vertex="1" parent="1">
          <mxGeometry x="41" y="500" width="40" height="20" as="geometry" />
        </mxCell>
        <mxCell id="6OEM7R_kupbA7WdNX-fc-48" value="1" style="text;html=1;strokeColor=none;fillColor=none;align=center;verticalAlign=middle;whiteSpace=wrap;rounded=0;fontColor=#00FF00;" vertex="1" parent="1">
          <mxGeometry x="81" y="500" width="40" height="20" as="geometry" />
        </mxCell>
        <mxCell id="6OEM7R_kupbA7WdNX-fc-49" value="2" style="text;html=1;strokeColor=none;fillColor=none;align=center;verticalAlign=middle;whiteSpace=wrap;rounded=0;" vertex="1" parent="1">
          <mxGeometry x="121" y="500" width="40" height="20" as="geometry" />
        </mxCell>
        <mxCell id="6OEM7R_kupbA7WdNX-fc-50" value="3" style="text;html=1;strokeColor=none;fillColor=none;align=center;verticalAlign=middle;whiteSpace=wrap;rounded=0;" vertex="1" parent="1">
          <mxGeometry x="161" y="500" width="40" height="20" as="geometry" />
        </mxCell>
        <mxCell id="6OEM7R_kupbA7WdNX-fc-53" value=")" style="rounded=0;whiteSpace=wrap;html=1;fontColor=#00FF00;" vertex="1" parent="1">
          <mxGeometry x="40" y="640" width="40" height="40" as="geometry" />
        </mxCell>
        <mxCell id="6OEM7R_kupbA7WdNX-fc-55" value="" style="rounded=0;whiteSpace=wrap;html=1;" vertex="1" parent="1">
          <mxGeometry x="161" y="660" width="40" height="40" as="geometry" />
        </mxCell>
        <mxCell id="6OEM7R_kupbA7WdNX-fc-57" value="(" style="rounded=0;whiteSpace=wrap;html=1;fontColor=#FFFFFF;" vertex="1" parent="1">
          <mxGeometry x="41" y="800" width="40" height="40" as="geometry" />
        </mxCell>
        <mxCell id="6OEM7R_kupbA7WdNX-fc-58" value=")" style="rounded=0;whiteSpace=wrap;html=1;fontColor=#FFFFFF;" vertex="1" parent="1">
          <mxGeometry x="81" y="800" width="40" height="40" as="geometry" />
        </mxCell>
        <mxCell id="6OEM7R_kupbA7WdNX-fc-59" value="[" style="rounded=0;whiteSpace=wrap;html=1;fontColor=#00FF00;" vertex="1" parent="1">
          <mxGeometry x="121" y="800" width="40" height="40" as="geometry" />
        </mxCell>
        <mxCell id="6OEM7R_kupbA7WdNX-fc-60" value="]" style="rounded=0;whiteSpace=wrap;html=1;" vertex="1" parent="1">
          <mxGeometry x="161" y="800" width="40" height="40" as="geometry" />
        </mxCell>
        <mxCell id="6OEM7R_kupbA7WdNX-fc-63" value="Sequence" style="text;html=1;strokeColor=none;fillColor=none;align=center;verticalAlign=middle;whiteSpace=wrap;rounded=0;" vertex="1" parent="1">
          <mxGeometry x="131" y="750" width="60" height="30" as="geometry" />
        </mxCell>
        <mxCell id="6OEM7R_kupbA7WdNX-fc-64" value="[" style="rounded=0;whiteSpace=wrap;html=1;fontColor=#00FF00;" vertex="1" parent="1">
          <mxGeometry x="40" y="920" width="40" height="40" as="geometry" />
        </mxCell>
        <mxCell id="6OEM7R_kupbA7WdNX-fc-65" value="Stack" style="text;html=1;strokeColor=none;fillColor=none;align=center;verticalAlign=middle;whiteSpace=wrap;rounded=0;" vertex="1" parent="1">
          <mxGeometry x="128" y="880" width="60" height="30" as="geometry" />
        </mxCell>
        <mxCell id="6OEM7R_kupbA7WdNX-fc-66" value="0" style="text;html=1;strokeColor=none;fillColor=none;align=center;verticalAlign=middle;whiteSpace=wrap;rounded=0;fontColor=#FFFFFF;" vertex="1" parent="1">
          <mxGeometry x="41" y="780" width="40" height="20" as="geometry" />
        </mxCell>
        <mxCell id="6OEM7R_kupbA7WdNX-fc-67" value="1" style="text;html=1;strokeColor=none;fillColor=none;align=center;verticalAlign=middle;whiteSpace=wrap;rounded=0;fontColor=#FFFFFF;" vertex="1" parent="1">
          <mxGeometry x="81" y="780" width="40" height="20" as="geometry" />
        </mxCell>
        <mxCell id="6OEM7R_kupbA7WdNX-fc-68" value="2" style="text;html=1;strokeColor=none;fillColor=none;align=center;verticalAlign=middle;whiteSpace=wrap;rounded=0;" vertex="1" parent="1">
          <mxGeometry x="121" y="780" width="40" height="20" as="geometry" />
        </mxCell>
        <mxCell id="6OEM7R_kupbA7WdNX-fc-69" value="3" style="text;html=1;strokeColor=none;fillColor=none;align=center;verticalAlign=middle;whiteSpace=wrap;rounded=0;" vertex="1" parent="1">
          <mxGeometry x="161" y="780" width="40" height="20" as="geometry" />
        </mxCell>
        <mxCell id="6OEM7R_kupbA7WdNX-fc-75" value="0" style="text;html=1;strokeColor=none;fillColor=none;align=center;verticalAlign=middle;whiteSpace=wrap;rounded=0;fontColor=#00FF00;" vertex="1" parent="1">
          <mxGeometry x="40" y="380" width="40" height="20" as="geometry" />
        </mxCell>
        <mxCell id="6OEM7R_kupbA7WdNX-fc-78" value="Pop()" style="endArrow=classic;html=1;rounded=0;exitX=1;exitY=0;exitDx=0;exitDy=0;entryX=0;entryY=0.5;entryDx=0;entryDy=0;" edge="1" parent="1" source="6OEM7R_kupbA7WdNX-fc-45" target="6OEM7R_kupbA7WdNX-fc-55">
          <mxGeometry width="50" height="50" relative="1" as="geometry">
            <mxPoint x="200" y="700" as="sourcePoint" />
            <mxPoint x="250" y="650" as="targetPoint" />
          </mxGeometry>
        </mxCell>
        <mxCell id="6OEM7R_kupbA7WdNX-fc-79" value="(" style="rounded=0;whiteSpace=wrap;html=1;fontColor=#FFFFFF;" vertex="1" parent="1">
          <mxGeometry x="41" y="1040" width="40" height="40" as="geometry" />
        </mxCell>
        <mxCell id="6OEM7R_kupbA7WdNX-fc-80" value=")" style="rounded=0;whiteSpace=wrap;html=1;fontColor=#FFFFFF;" vertex="1" parent="1">
          <mxGeometry x="81" y="1040" width="40" height="40" as="geometry" />
        </mxCell>
        <mxCell id="6OEM7R_kupbA7WdNX-fc-81" value="[" style="rounded=0;whiteSpace=wrap;html=1;fontColor=#00FF00;" vertex="1" parent="1">
          <mxGeometry x="121" y="1040" width="40" height="40" as="geometry" />
        </mxCell>
        <mxCell id="6OEM7R_kupbA7WdNX-fc-82" value="]" style="rounded=0;whiteSpace=wrap;html=1;" vertex="1" parent="1">
          <mxGeometry x="161" y="1040" width="40" height="40" as="geometry" />
        </mxCell>
        <mxCell id="6OEM7R_kupbA7WdNX-fc-83" value="Sequence" style="text;html=1;strokeColor=none;fillColor=none;align=center;verticalAlign=middle;whiteSpace=wrap;rounded=0;" vertex="1" parent="1">
          <mxGeometry x="131" y="990" width="60" height="30" as="geometry" />
        </mxCell>
        <mxCell id="6OEM7R_kupbA7WdNX-fc-84" value="[" style="rounded=0;whiteSpace=wrap;html=1;fontColor=#FFFFFF;" vertex="1" parent="1">
          <mxGeometry x="41" y="1200" width="40" height="40" as="geometry" />
        </mxCell>
        <mxCell id="6OEM7R_kupbA7WdNX-fc-85" value="Stack" style="text;html=1;strokeColor=none;fillColor=none;align=center;verticalAlign=middle;whiteSpace=wrap;rounded=0;" vertex="1" parent="1">
          <mxGeometry x="131" y="1110" width="60" height="30" as="geometry" />
        </mxCell>
        <mxCell id="6OEM7R_kupbA7WdNX-fc-86" value="0" style="text;html=1;strokeColor=none;fillColor=none;align=center;verticalAlign=middle;whiteSpace=wrap;rounded=0;fontColor=#FFFFFF;" vertex="1" parent="1">
          <mxGeometry x="41" y="1020" width="40" height="20" as="geometry" />
        </mxCell>
        <mxCell id="6OEM7R_kupbA7WdNX-fc-87" value="1" style="text;html=1;strokeColor=none;fillColor=none;align=center;verticalAlign=middle;whiteSpace=wrap;rounded=0;fontColor=#FFFFFF;" vertex="1" parent="1">
          <mxGeometry x="81" y="1020" width="40" height="20" as="geometry" />
        </mxCell>
        <mxCell id="6OEM7R_kupbA7WdNX-fc-88" value="2" style="text;html=1;strokeColor=none;fillColor=none;align=center;verticalAlign=middle;whiteSpace=wrap;rounded=0;" vertex="1" parent="1">
          <mxGeometry x="121" y="1020" width="40" height="20" as="geometry" />
        </mxCell>
        <mxCell id="6OEM7R_kupbA7WdNX-fc-89" value="3" style="text;html=1;strokeColor=none;fillColor=none;align=center;verticalAlign=middle;whiteSpace=wrap;rounded=0;" vertex="1" parent="1">
          <mxGeometry x="161" y="1020" width="40" height="20" as="geometry" />
        </mxCell>
        <mxCell id="6OEM7R_kupbA7WdNX-fc-90" value="]" style="rounded=0;whiteSpace=wrap;html=1;fontColor=#00FF00;" vertex="1" parent="1">
          <mxGeometry x="41" y="1160" width="40" height="40" as="geometry" />
        </mxCell>
        <mxCell id="6OEM7R_kupbA7WdNX-fc-93" value="" style="rounded=0;whiteSpace=wrap;html=1;" vertex="1" parent="1">
          <mxGeometry x="162" y="1180" width="40" height="40" as="geometry" />
        </mxCell>
        <mxCell id="6OEM7R_kupbA7WdNX-fc-94" value="Pop()" style="endArrow=classic;html=1;rounded=0;exitX=1;exitY=0;exitDx=0;exitDy=0;entryX=0;entryY=0.5;entryDx=0;entryDy=0;" edge="1" parent="1" target="6OEM7R_kupbA7WdNX-fc-93">
          <mxGeometry width="50" height="50" relative="1" as="geometry">
            <mxPoint x="81" y="1200" as="sourcePoint" />
            <mxPoint x="251" y="1170" as="targetPoint" />
          </mxGeometry>
        </mxCell>
        <mxCell id="6OEM7R_kupbA7WdNX-fc-95" value="Stack is empty: - Sequence &lt;b&gt;valid&lt;/b&gt;" style="text;html=1;strokeColor=none;fillColor=none;align=center;verticalAlign=middle;whiteSpace=wrap;rounded=0;" vertex="1" parent="1">
          <mxGeometry x="20" y="1260" width="240" height="40" as="geometry" />
        </mxCell>
        <mxCell id="6OEM7R_kupbA7WdNX-fc-96" value="(" style="rounded=0;whiteSpace=wrap;html=1;" vertex="1" parent="1">
          <mxGeometry x="480" y="120" width="40" height="40" as="geometry" />
        </mxCell>
        <mxCell id="6OEM7R_kupbA7WdNX-fc-97" value="(" style="rounded=0;whiteSpace=wrap;html=1;" vertex="1" parent="1">
          <mxGeometry x="520" y="120" width="40" height="40" as="geometry" />
        </mxCell>
        <mxCell id="6OEM7R_kupbA7WdNX-fc-98" value="}" style="rounded=0;whiteSpace=wrap;html=1;" vertex="1" parent="1">
          <mxGeometry x="560" y="120" width="40" height="40" as="geometry" />
        </mxCell>
        <mxCell id="6OEM7R_kupbA7WdNX-fc-99" value=")" style="rounded=0;whiteSpace=wrap;html=1;" vertex="1" parent="1">
          <mxGeometry x="600" y="120" width="40" height="40" as="geometry" />
        </mxCell>
        <mxCell id="6OEM7R_kupbA7WdNX-fc-100" value="Sequence" style="text;html=1;strokeColor=none;fillColor=none;align=center;verticalAlign=middle;whiteSpace=wrap;rounded=0;" vertex="1" parent="1">
          <mxGeometry x="571" y="70" width="60" height="30" as="geometry" />
        </mxCell>
        <mxCell id="6OEM7R_kupbA7WdNX-fc-101" value="Preconditions" style="text;html=1;strokeColor=none;fillColor=none;align=center;verticalAlign=middle;whiteSpace=wrap;rounded=0;fontSize=18;" vertex="1" parent="1">
          <mxGeometry x="500" y="40" width="60" height="30" as="geometry" />
        </mxCell>
        <mxCell id="6OEM7R_kupbA7WdNX-fc-102" value="0" style="text;html=1;strokeColor=none;fillColor=none;align=center;verticalAlign=middle;whiteSpace=wrap;rounded=0;" vertex="1" parent="1">
          <mxGeometry x="480" y="100" width="40" height="20" as="geometry" />
        </mxCell>
        <mxCell id="6OEM7R_kupbA7WdNX-fc-103" value="1" style="text;html=1;strokeColor=none;fillColor=none;align=center;verticalAlign=middle;whiteSpace=wrap;rounded=0;" vertex="1" parent="1">
          <mxGeometry x="520" y="100" width="40" height="20" as="geometry" />
        </mxCell>
        <mxCell id="6OEM7R_kupbA7WdNX-fc-104" value="2" style="text;html=1;strokeColor=none;fillColor=none;align=center;verticalAlign=middle;whiteSpace=wrap;rounded=0;" vertex="1" parent="1">
          <mxGeometry x="560" y="100" width="40" height="20" as="geometry" />
        </mxCell>
        <mxCell id="6OEM7R_kupbA7WdNX-fc-105" value="3" style="text;html=1;strokeColor=none;fillColor=none;align=center;verticalAlign=middle;whiteSpace=wrap;rounded=0;" vertex="1" parent="1">
          <mxGeometry x="600" y="100" width="40" height="20" as="geometry" />
        </mxCell>
        <mxCell id="6OEM7R_kupbA7WdNX-fc-106" value="Iterations" style="text;html=1;strokeColor=none;fillColor=none;align=center;verticalAlign=middle;whiteSpace=wrap;rounded=0;fontSize=18;" vertex="1" parent="1">
          <mxGeometry x="480" y="200" width="60" height="30" as="geometry" />
        </mxCell>
        <mxCell id="6OEM7R_kupbA7WdNX-fc-107" value="(" style="rounded=0;whiteSpace=wrap;html=1;fontColor=#00FF00;" vertex="1" parent="1">
          <mxGeometry x="481" y="280" width="40" height="40" as="geometry" />
        </mxCell>
        <mxCell id="6OEM7R_kupbA7WdNX-fc-108" value="(" style="rounded=0;whiteSpace=wrap;html=1;" vertex="1" parent="1">
          <mxGeometry x="521" y="280" width="40" height="40" as="geometry" />
        </mxCell>
        <mxCell id="6OEM7R_kupbA7WdNX-fc-109" value="{" style="rounded=0;whiteSpace=wrap;html=1;" vertex="1" parent="1">
          <mxGeometry x="561" y="280" width="40" height="40" as="geometry" />
        </mxCell>
        <mxCell id="6OEM7R_kupbA7WdNX-fc-110" value=")" style="rounded=0;whiteSpace=wrap;html=1;" vertex="1" parent="1">
          <mxGeometry x="601" y="280" width="40" height="40" as="geometry" />
        </mxCell>
        <mxCell id="6OEM7R_kupbA7WdNX-fc-111" value="Sequence" style="text;html=1;strokeColor=none;fillColor=none;align=center;verticalAlign=middle;whiteSpace=wrap;rounded=0;" vertex="1" parent="1">
          <mxGeometry x="571" y="230" width="60" height="30" as="geometry" />
        </mxCell>
        <mxCell id="6OEM7R_kupbA7WdNX-fc-112" value="(" style="rounded=0;whiteSpace=wrap;html=1;fontColor=#00FF00;" vertex="1" parent="1">
          <mxGeometry x="481" y="400" width="40" height="40" as="geometry" />
        </mxCell>
        <mxCell id="6OEM7R_kupbA7WdNX-fc-113" value="Stack" style="text;html=1;strokeColor=none;fillColor=none;align=center;verticalAlign=middle;whiteSpace=wrap;rounded=0;" vertex="1" parent="1">
          <mxGeometry x="571" y="360" width="60" height="30" as="geometry" />
        </mxCell>
        <mxCell id="6OEM7R_kupbA7WdNX-fc-114" value="0" style="text;html=1;strokeColor=none;fillColor=none;align=center;verticalAlign=middle;whiteSpace=wrap;rounded=0;fontColor=#00FF00;" vertex="1" parent="1">
          <mxGeometry x="481" y="260" width="40" height="20" as="geometry" />
        </mxCell>
        <mxCell id="6OEM7R_kupbA7WdNX-fc-115" value="1" style="text;html=1;strokeColor=none;fillColor=none;align=center;verticalAlign=middle;whiteSpace=wrap;rounded=0;" vertex="1" parent="1">
          <mxGeometry x="521" y="260" width="40" height="20" as="geometry" />
        </mxCell>
        <mxCell id="6OEM7R_kupbA7WdNX-fc-116" value="2" style="text;html=1;strokeColor=none;fillColor=none;align=center;verticalAlign=middle;whiteSpace=wrap;rounded=0;" vertex="1" parent="1">
          <mxGeometry x="561" y="260" width="40" height="20" as="geometry" />
        </mxCell>
        <mxCell id="6OEM7R_kupbA7WdNX-fc-117" value="3" style="text;html=1;strokeColor=none;fillColor=none;align=center;verticalAlign=middle;whiteSpace=wrap;rounded=0;" vertex="1" parent="1">
          <mxGeometry x="601" y="260" width="40" height="20" as="geometry" />
        </mxCell>
        <mxCell id="6OEM7R_kupbA7WdNX-fc-118" value="0" style="text;html=1;strokeColor=none;fillColor=none;align=center;verticalAlign=middle;whiteSpace=wrap;rounded=0;fontColor=#00FF00;" vertex="1" parent="1">
          <mxGeometry x="480" y="380" width="40" height="20" as="geometry" />
        </mxCell>
        <mxCell id="6OEM7R_kupbA7WdNX-fc-119" value="(" style="rounded=0;whiteSpace=wrap;html=1;fontColor=#FFFFFF;" vertex="1" parent="1">
          <mxGeometry x="482" y="530" width="40" height="40" as="geometry" />
        </mxCell>
        <mxCell id="6OEM7R_kupbA7WdNX-fc-120" value="(" style="rounded=0;whiteSpace=wrap;html=1;fontColor=#00FF00;" vertex="1" parent="1">
          <mxGeometry x="522" y="530" width="40" height="40" as="geometry" />
        </mxCell>
        <mxCell id="6OEM7R_kupbA7WdNX-fc-121" value="{" style="rounded=0;whiteSpace=wrap;html=1;" vertex="1" parent="1">
          <mxGeometry x="562" y="530" width="40" height="40" as="geometry" />
        </mxCell>
        <mxCell id="6OEM7R_kupbA7WdNX-fc-122" value=")" style="rounded=0;whiteSpace=wrap;html=1;" vertex="1" parent="1">
          <mxGeometry x="602" y="530" width="40" height="40" as="geometry" />
        </mxCell>
        <mxCell id="6OEM7R_kupbA7WdNX-fc-123" value="Sequence" style="text;html=1;strokeColor=none;fillColor=none;align=center;verticalAlign=middle;whiteSpace=wrap;rounded=0;" vertex="1" parent="1">
          <mxGeometry x="572" y="480" width="60" height="30" as="geometry" />
        </mxCell>
        <mxCell id="6OEM7R_kupbA7WdNX-fc-124" value="(" style="rounded=0;whiteSpace=wrap;html=1;fontColor=#FFFFFF;" vertex="1" parent="1">
          <mxGeometry x="481" y="680" width="40" height="40" as="geometry" />
        </mxCell>
        <mxCell id="6OEM7R_kupbA7WdNX-fc-125" value="Stack" style="text;html=1;strokeColor=none;fillColor=none;align=center;verticalAlign=middle;whiteSpace=wrap;rounded=0;" vertex="1" parent="1">
          <mxGeometry x="531" y="600" width="60" height="30" as="geometry" />
        </mxCell>
        <mxCell id="6OEM7R_kupbA7WdNX-fc-126" value="0" style="text;html=1;strokeColor=none;fillColor=none;align=center;verticalAlign=middle;whiteSpace=wrap;rounded=0;fontColor=#FFFFFF;" vertex="1" parent="1">
          <mxGeometry x="482" y="510" width="40" height="20" as="geometry" />
        </mxCell>
        <mxCell id="6OEM7R_kupbA7WdNX-fc-127" value="1" style="text;html=1;strokeColor=none;fillColor=none;align=center;verticalAlign=middle;whiteSpace=wrap;rounded=0;fontColor=#00FF00;" vertex="1" parent="1">
          <mxGeometry x="522" y="510" width="40" height="20" as="geometry" />
        </mxCell>
        <mxCell id="6OEM7R_kupbA7WdNX-fc-128" value="2" style="text;html=1;strokeColor=none;fillColor=none;align=center;verticalAlign=middle;whiteSpace=wrap;rounded=0;" vertex="1" parent="1">
          <mxGeometry x="562" y="510" width="40" height="20" as="geometry" />
        </mxCell>
        <mxCell id="6OEM7R_kupbA7WdNX-fc-129" value="3" style="text;html=1;strokeColor=none;fillColor=none;align=center;verticalAlign=middle;whiteSpace=wrap;rounded=0;" vertex="1" parent="1">
          <mxGeometry x="602" y="510" width="40" height="20" as="geometry" />
        </mxCell>
        <mxCell id="6OEM7R_kupbA7WdNX-fc-130" value="(" style="rounded=0;whiteSpace=wrap;html=1;fontColor=#00FF00;" vertex="1" parent="1">
          <mxGeometry x="481" y="640" width="40" height="40" as="geometry" />
        </mxCell>
        <mxCell id="6OEM7R_kupbA7WdNX-fc-133" value="(" style="rounded=0;whiteSpace=wrap;html=1;fontColor=#FFFFFF;" vertex="1" parent="1">
          <mxGeometry x="483" y="800" width="40" height="40" as="geometry" />
        </mxCell>
        <mxCell id="6OEM7R_kupbA7WdNX-fc-134" value="(" style="rounded=0;whiteSpace=wrap;html=1;fontColor=#FFFFFF;" vertex="1" parent="1">
          <mxGeometry x="523" y="800" width="40" height="40" as="geometry" />
        </mxCell>
        <mxCell id="6OEM7R_kupbA7WdNX-fc-135" value="{" style="rounded=0;whiteSpace=wrap;html=1;fontColor=#00FF00;" vertex="1" parent="1">
          <mxGeometry x="563" y="800" width="40" height="40" as="geometry" />
        </mxCell>
        <mxCell id="6OEM7R_kupbA7WdNX-fc-136" value=")" style="rounded=0;whiteSpace=wrap;html=1;" vertex="1" parent="1">
          <mxGeometry x="603" y="800" width="40" height="40" as="geometry" />
        </mxCell>
        <mxCell id="6OEM7R_kupbA7WdNX-fc-137" value="Sequence" style="text;html=1;strokeColor=none;fillColor=none;align=center;verticalAlign=middle;whiteSpace=wrap;rounded=0;" vertex="1" parent="1">
          <mxGeometry x="573" y="750" width="60" height="30" as="geometry" />
        </mxCell>
        <mxCell id="6OEM7R_kupbA7WdNX-fc-138" value="(" style="rounded=0;whiteSpace=wrap;html=1;fontColor=#FFFFFF;" vertex="1" parent="1">
          <mxGeometry x="482" y="960" width="40" height="40" as="geometry" />
        </mxCell>
        <mxCell id="6OEM7R_kupbA7WdNX-fc-139" value="Stack" style="text;html=1;strokeColor=none;fillColor=none;align=center;verticalAlign=middle;whiteSpace=wrap;rounded=0;" vertex="1" parent="1">
          <mxGeometry x="532" y="880" width="60" height="30" as="geometry" />
        </mxCell>
        <mxCell id="6OEM7R_kupbA7WdNX-fc-140" value="0" style="text;html=1;strokeColor=none;fillColor=none;align=center;verticalAlign=middle;whiteSpace=wrap;rounded=0;fontColor=#FFFFFF;" vertex="1" parent="1">
          <mxGeometry x="483" y="780" width="40" height="20" as="geometry" />
        </mxCell>
        <mxCell id="6OEM7R_kupbA7WdNX-fc-141" value="1" style="text;html=1;strokeColor=none;fillColor=none;align=center;verticalAlign=middle;whiteSpace=wrap;rounded=0;fontColor=#FFFFFF;" vertex="1" parent="1">
          <mxGeometry x="523" y="780" width="40" height="20" as="geometry" />
        </mxCell>
        <mxCell id="6OEM7R_kupbA7WdNX-fc-142" value="2" style="text;html=1;strokeColor=none;fillColor=none;align=center;verticalAlign=middle;whiteSpace=wrap;rounded=0;fontColor=#00FF00;" vertex="1" parent="1">
          <mxGeometry x="563" y="780" width="40" height="20" as="geometry" />
        </mxCell>
        <mxCell id="6OEM7R_kupbA7WdNX-fc-143" value="3" style="text;html=1;strokeColor=none;fillColor=none;align=center;verticalAlign=middle;whiteSpace=wrap;rounded=0;" vertex="1" parent="1">
          <mxGeometry x="603" y="780" width="40" height="20" as="geometry" />
        </mxCell>
        <mxCell id="6OEM7R_kupbA7WdNX-fc-144" value="(" style="rounded=0;whiteSpace=wrap;html=1;fontColor=#FFFFFF;" vertex="1" parent="1">
          <mxGeometry x="482" y="920" width="40" height="40" as="geometry" />
        </mxCell>
        <mxCell id="6OEM7R_kupbA7WdNX-fc-145" value="{" style="rounded=0;whiteSpace=wrap;html=1;fontColor=#00FF00;" vertex="1" parent="1">
          <mxGeometry x="482" y="880" width="40" height="40" as="geometry" />
        </mxCell>
        <mxCell id="6OEM7R_kupbA7WdNX-fc-146" value="(" style="rounded=0;whiteSpace=wrap;html=1;fontColor=#FFFFFF;" vertex="1" parent="1">
          <mxGeometry x="484" y="1100" width="40" height="40" as="geometry" />
        </mxCell>
        <mxCell id="6OEM7R_kupbA7WdNX-fc-147" value="(" style="rounded=0;whiteSpace=wrap;html=1;fontColor=#FFFFFF;" vertex="1" parent="1">
          <mxGeometry x="524" y="1100" width="40" height="40" as="geometry" />
        </mxCell>
        <mxCell id="6OEM7R_kupbA7WdNX-fc-148" value="{" style="rounded=0;whiteSpace=wrap;html=1;fontColor=default;" vertex="1" parent="1">
          <mxGeometry x="564" y="1100" width="40" height="40" as="geometry" />
        </mxCell>
        <mxCell id="6OEM7R_kupbA7WdNX-fc-149" value=")" style="rounded=0;whiteSpace=wrap;html=1;fontColor=#00FF00;" vertex="1" parent="1">
          <mxGeometry x="604" y="1100" width="40" height="40" as="geometry" />
        </mxCell>
        <mxCell id="6OEM7R_kupbA7WdNX-fc-150" value="Sequence" style="text;html=1;strokeColor=none;fillColor=none;align=center;verticalAlign=middle;whiteSpace=wrap;rounded=0;" vertex="1" parent="1">
          <mxGeometry x="574" y="1050" width="60" height="30" as="geometry" />
        </mxCell>
        <mxCell id="6OEM7R_kupbA7WdNX-fc-151" value="(" style="rounded=0;whiteSpace=wrap;html=1;fontColor=#FFFFFF;" vertex="1" parent="1">
          <mxGeometry x="482" y="1320" width="40" height="40" as="geometry" />
        </mxCell>
        <mxCell id="6OEM7R_kupbA7WdNX-fc-152" value="Stack" style="text;html=1;strokeColor=none;fillColor=none;align=center;verticalAlign=middle;whiteSpace=wrap;rounded=0;" vertex="1" parent="1">
          <mxGeometry x="532" y="1240" width="60" height="30" as="geometry" />
        </mxCell>
        <mxCell id="6OEM7R_kupbA7WdNX-fc-153" value="0" style="text;html=1;strokeColor=none;fillColor=none;align=center;verticalAlign=middle;whiteSpace=wrap;rounded=0;fontColor=#FFFFFF;" vertex="1" parent="1">
          <mxGeometry x="484" y="1080" width="40" height="20" as="geometry" />
        </mxCell>
        <mxCell id="6OEM7R_kupbA7WdNX-fc-154" value="1" style="text;html=1;strokeColor=none;fillColor=none;align=center;verticalAlign=middle;whiteSpace=wrap;rounded=0;fontColor=#FFFFFF;" vertex="1" parent="1">
          <mxGeometry x="524" y="1080" width="40" height="20" as="geometry" />
        </mxCell>
        <mxCell id="6OEM7R_kupbA7WdNX-fc-155" value="2" style="text;html=1;strokeColor=none;fillColor=none;align=center;verticalAlign=middle;whiteSpace=wrap;rounded=0;fontColor=default;" vertex="1" parent="1">
          <mxGeometry x="564" y="1080" width="40" height="20" as="geometry" />
        </mxCell>
        <mxCell id="6OEM7R_kupbA7WdNX-fc-156" value="3" style="text;html=1;strokeColor=none;fillColor=none;align=center;verticalAlign=middle;whiteSpace=wrap;rounded=0;fontColor=#00FF00;" vertex="1" parent="1">
          <mxGeometry x="604" y="1080" width="40" height="20" as="geometry" />
        </mxCell>
        <mxCell id="6OEM7R_kupbA7WdNX-fc-157" value="(" style="rounded=0;whiteSpace=wrap;html=1;fontColor=#FFFFFF;" vertex="1" parent="1">
          <mxGeometry x="482" y="1280" width="40" height="40" as="geometry" />
        </mxCell>
        <mxCell id="6OEM7R_kupbA7WdNX-fc-158" value="{" style="rounded=0;whiteSpace=wrap;html=1;fontColor=#FFFFFF;" vertex="1" parent="1">
          <mxGeometry x="482" y="1240" width="40" height="40" as="geometry" />
        </mxCell>
        <mxCell id="6OEM7R_kupbA7WdNX-fc-159" value=")" style="rounded=0;whiteSpace=wrap;html=1;fontColor=#00FF00;" vertex="1" parent="1">
          <mxGeometry x="482" y="1200" width="40" height="40" as="geometry" />
        </mxCell>
        <mxCell id="6OEM7R_kupbA7WdNX-fc-160" value="Invalid closing bracket: - Sequence &lt;b&gt;Invalid&lt;/b&gt;" style="text;html=1;strokeColor=none;fillColor=none;align=center;verticalAlign=middle;whiteSpace=wrap;rounded=0;" vertex="1" parent="1">
          <mxGeometry x="480" y="1400" width="240" height="40" as="geometry" />
        </mxCell>
        <mxCell id="6OEM7R_kupbA7WdNX-fc-162" value="(" style="rounded=0;whiteSpace=wrap;html=1;" vertex="1" parent="1">
          <mxGeometry x="790" y="120" width="40" height="40" as="geometry" />
        </mxCell>
        <mxCell id="6OEM7R_kupbA7WdNX-fc-163" value="(" style="rounded=0;whiteSpace=wrap;html=1;" vertex="1" parent="1">
          <mxGeometry x="830" y="120" width="40" height="40" as="geometry" />
        </mxCell>
        <mxCell id="6OEM7R_kupbA7WdNX-fc-164" value="}" style="rounded=0;whiteSpace=wrap;html=1;" vertex="1" parent="1">
          <mxGeometry x="870" y="120" width="40" height="40" as="geometry" />
        </mxCell>
        <mxCell id="6OEM7R_kupbA7WdNX-fc-165" value=")" style="rounded=0;whiteSpace=wrap;html=1;" vertex="1" parent="1">
          <mxGeometry x="910" y="120" width="40" height="40" as="geometry" />
        </mxCell>
        <mxCell id="6OEM7R_kupbA7WdNX-fc-166" value="Sequence" style="text;html=1;strokeColor=none;fillColor=none;align=center;verticalAlign=middle;whiteSpace=wrap;rounded=0;" vertex="1" parent="1">
          <mxGeometry x="881" y="70" width="60" height="30" as="geometry" />
        </mxCell>
        <mxCell id="6OEM7R_kupbA7WdNX-fc-167" value="Preconditions" style="text;html=1;strokeColor=none;fillColor=none;align=center;verticalAlign=middle;whiteSpace=wrap;rounded=0;fontSize=18;" vertex="1" parent="1">
          <mxGeometry x="810" y="40" width="60" height="30" as="geometry" />
        </mxCell>
        <mxCell id="6OEM7R_kupbA7WdNX-fc-168" value="0" style="text;html=1;strokeColor=none;fillColor=none;align=center;verticalAlign=middle;whiteSpace=wrap;rounded=0;" vertex="1" parent="1">
          <mxGeometry x="790" y="100" width="40" height="20" as="geometry" />
        </mxCell>
        <mxCell id="6OEM7R_kupbA7WdNX-fc-169" value="1" style="text;html=1;strokeColor=none;fillColor=none;align=center;verticalAlign=middle;whiteSpace=wrap;rounded=0;" vertex="1" parent="1">
          <mxGeometry x="830" y="100" width="40" height="20" as="geometry" />
        </mxCell>
        <mxCell id="6OEM7R_kupbA7WdNX-fc-170" value="2" style="text;html=1;strokeColor=none;fillColor=none;align=center;verticalAlign=middle;whiteSpace=wrap;rounded=0;" vertex="1" parent="1">
          <mxGeometry x="870" y="100" width="40" height="20" as="geometry" />
        </mxCell>
        <mxCell id="6OEM7R_kupbA7WdNX-fc-171" value="3" style="text;html=1;strokeColor=none;fillColor=none;align=center;verticalAlign=middle;whiteSpace=wrap;rounded=0;" vertex="1" parent="1">
          <mxGeometry x="910" y="100" width="40" height="20" as="geometry" />
        </mxCell>
        <mxCell id="6OEM7R_kupbA7WdNX-fc-172" value="Iterations" style="text;html=1;strokeColor=none;fillColor=none;align=center;verticalAlign=middle;whiteSpace=wrap;rounded=0;fontSize=18;" vertex="1" parent="1">
          <mxGeometry x="790" y="200" width="60" height="30" as="geometry" />
        </mxCell>
        <mxCell id="6OEM7R_kupbA7WdNX-fc-173" value="(" style="rounded=0;whiteSpace=wrap;html=1;fontColor=#00FF00;" vertex="1" parent="1">
          <mxGeometry x="791" y="280" width="40" height="40" as="geometry" />
        </mxCell>
        <mxCell id="6OEM7R_kupbA7WdNX-fc-174" value="}" style="rounded=0;whiteSpace=wrap;html=1;" vertex="1" parent="1">
          <mxGeometry x="831" y="280" width="40" height="40" as="geometry" />
        </mxCell>
        <mxCell id="6OEM7R_kupbA7WdNX-fc-177" value="Sequence" style="text;html=1;strokeColor=none;fillColor=none;align=center;verticalAlign=middle;whiteSpace=wrap;rounded=0;" vertex="1" parent="1">
          <mxGeometry x="881" y="230" width="60" height="30" as="geometry" />
        </mxCell>
        <mxCell id="6OEM7R_kupbA7WdNX-fc-178" value="(" style="rounded=0;whiteSpace=wrap;html=1;fontColor=#00FF00;" vertex="1" parent="1">
          <mxGeometry x="791" y="400" width="40" height="40" as="geometry" />
        </mxCell>
        <mxCell id="6OEM7R_kupbA7WdNX-fc-179" value="Stack" style="text;html=1;strokeColor=none;fillColor=none;align=center;verticalAlign=middle;whiteSpace=wrap;rounded=0;" vertex="1" parent="1">
          <mxGeometry x="881" y="360" width="60" height="30" as="geometry" />
        </mxCell>
        <mxCell id="6OEM7R_kupbA7WdNX-fc-180" value="0" style="text;html=1;strokeColor=none;fillColor=none;align=center;verticalAlign=middle;whiteSpace=wrap;rounded=0;fontColor=#00FF00;" vertex="1" parent="1">
          <mxGeometry x="791" y="260" width="40" height="20" as="geometry" />
        </mxCell>
        <mxCell id="6OEM7R_kupbA7WdNX-fc-181" value="1" style="text;html=1;strokeColor=none;fillColor=none;align=center;verticalAlign=middle;whiteSpace=wrap;rounded=0;" vertex="1" parent="1">
          <mxGeometry x="831" y="260" width="40" height="20" as="geometry" />
        </mxCell>
        <mxCell id="6OEM7R_kupbA7WdNX-fc-184" value="0" style="text;html=1;strokeColor=none;fillColor=none;align=center;verticalAlign=middle;whiteSpace=wrap;rounded=0;fontColor=#00FF00;" vertex="1" parent="1">
          <mxGeometry x="790" y="380" width="40" height="20" as="geometry" />
        </mxCell>
        <mxCell id="6OEM7R_kupbA7WdNX-fc-185" value="Iterations" style="text;html=1;strokeColor=none;fillColor=none;align=center;verticalAlign=middle;whiteSpace=wrap;rounded=0;fontSize=18;" vertex="1" parent="1">
          <mxGeometry x="799" y="440" width="60" height="30" as="geometry" />
        </mxCell>
        <mxCell id="6OEM7R_kupbA7WdNX-fc-186" value="(" style="rounded=0;whiteSpace=wrap;html=1;fontColor=#FFFFFF;" vertex="1" parent="1">
          <mxGeometry x="800" y="520" width="40" height="40" as="geometry" />
        </mxCell>
        <mxCell id="6OEM7R_kupbA7WdNX-fc-187" value="}" style="rounded=0;whiteSpace=wrap;html=1;fontColor=#00FF00;" vertex="1" parent="1">
          <mxGeometry x="840" y="520" width="40" height="40" as="geometry" />
        </mxCell>
        <mxCell id="6OEM7R_kupbA7WdNX-fc-188" value="Sequence" style="text;html=1;strokeColor=none;fillColor=none;align=center;verticalAlign=middle;whiteSpace=wrap;rounded=0;" vertex="1" parent="1">
          <mxGeometry x="890" y="470" width="60" height="30" as="geometry" />
        </mxCell>
        <mxCell id="6OEM7R_kupbA7WdNX-fc-189" value="(" style="rounded=0;whiteSpace=wrap;html=1;fontColor=#FFFFFF;" vertex="1" parent="1">
          <mxGeometry x="800" y="640" width="40" height="40" as="geometry" />
        </mxCell>
        <mxCell id="6OEM7R_kupbA7WdNX-fc-190" value="Stack" style="text;html=1;strokeColor=none;fillColor=none;align=center;verticalAlign=middle;whiteSpace=wrap;rounded=0;" vertex="1" parent="1">
          <mxGeometry x="890" y="600" width="60" height="30" as="geometry" />
        </mxCell>
        <mxCell id="6OEM7R_kupbA7WdNX-fc-191" value="0" style="text;html=1;strokeColor=none;fillColor=none;align=center;verticalAlign=middle;whiteSpace=wrap;rounded=0;fontColor=#FFFFFF;" vertex="1" parent="1">
          <mxGeometry x="800" y="500" width="40" height="20" as="geometry" />
        </mxCell>
        <mxCell id="6OEM7R_kupbA7WdNX-fc-192" value="1" style="text;html=1;strokeColor=none;fillColor=none;align=center;verticalAlign=middle;whiteSpace=wrap;rounded=0;fontColor=#00FF00;" vertex="1" parent="1">
          <mxGeometry x="840" y="500" width="40" height="20" as="geometry" />
        </mxCell>
        <mxCell id="6OEM7R_kupbA7WdNX-fc-193" value="0" style="text;html=1;strokeColor=none;fillColor=none;align=center;verticalAlign=middle;whiteSpace=wrap;rounded=0;fontColor=#FFFFFF;" vertex="1" parent="1">
          <mxGeometry x="799" y="620" width="40" height="20" as="geometry" />
        </mxCell>
        <mxCell id="6OEM7R_kupbA7WdNX-fc-194" value="Invalid closing bracket: - Sequence &lt;b&gt;Invalid&lt;/b&gt;" style="text;html=1;strokeColor=none;fillColor=none;align=center;verticalAlign=middle;whiteSpace=wrap;rounded=0;" vertex="1" parent="1">
          <mxGeometry x="791" y="710" width="240" height="40" as="geometry" />
        </mxCell>
      </root>
    </mxGraphModel>
  </diagram>
</mxfile>
